<?xml version="1.0" standalone="no"?>
<!DOCTYPE svg PUBLIC "-//W3C//DTD SVG 20010904//EN"
 "http://www.w3.org/TR/2001/REC-SVG-20010904/DTD/svg10.dtd">
<svg version="1.0" xmlns="http://www.w3.org/2000/svg"
 width="556.000000pt" height="556.000000pt" viewBox="0 0 556.000000 556.000000"
 preserveAspectRatio="xMidYMid meet">
<metadata>
Created by potrace 1.11, written by Peter Selinger 2001-2013
</metadata>
<g transform="translate(0.000000,556.000000) scale(0.100000,-0.100000)"
fill="#000000" stroke="none">
<path d="M4065 4770 c-16 -11 -36 -20 -44 -20 -16 0 -100 -51 -151 -92 -19
-15 -38 -28 -43 -28 -5 0 -23 -11 -41 -25 -18 -14 -38 -25 -43 -25 -6 0 -16
-7 -23 -15 -7 -8 -16 -13 -20 -10 -5 3 -10 1 -12 -4 -1 -5 -61 -37 -133 -72
-71 -34 -133 -67 -136 -72 -3 -5 -8 -8 -10 -6 -5 3 -121 -52 -137 -65 -7 -6
-19 -17 -27 -23 -7 -7 -19 -13 -25 -13 -7 0 -29 -13 -50 -30 -21 -16 -41 -30
-44 -30 -7 0 -67 -41 -76 -51 -3 -3 -16 -12 -30 -19 -26 -14 -122 -83 -152
-110 -9 -8 -41 -35 -72 -60 -30 -25 -55 -48 -56 -53 0 -4 -14 -22 -30 -39 -28
-29 -130 -172 -130 -181 0 -3 -7 -22 -16 -43 l-16 -38 -24 49 c-29 56 -52 86
-133 171 -59 62 -180 164 -237 199 -160 100 -219 134 -330 190 -71 36 -134 65
-140 65 -6 0 -17 7 -24 15 -6 8 -15 14 -18 13 -4 -1 -61 24 -127 56 -101 49
-326 143 -360 151 -5 1 -23 7 -38 13 -15 7 -40 15 -55 18 -15 4 -31 10 -37 14
-5 4 -39 15 -73 24 -60 17 -64 17 -76 0 -8 -11 -21 -15 -34 -12 -28 8 -68 -37
-77 -87 -4 -22 -9 -49 -11 -60 -20 -117 -24 -127 -45 -122 -19 5 -79 -27 -79
-43 0 -5 -7 -10 -15 -10 -8 0 -16 -4 -16 -10 -1 -5 -2 -13 -3 -17 -4 -15 -18
-103 -18 -108 1 -2 -5 -22 -13 -44 -7 -22 -11 -41 -9 -44 3 -2 -7 -12 -21 -21
-14 -9 -24 -20 -21 -24 9 -15 -34 -206 -48 -214 -7 -4 -19 -21 -26 -38 -7 -16
-15 -30 -19 -31 -3 -1 -21 -2 -39 -4 -18 -1 -42 -12 -53 -24 -11 -11 -24 -21
-29 -21 -12 0 -42 -82 -45 -122 -1 -18 -11 -64 -23 -103 -12 -38 -24 -81 -27
-95 -2 -14 -12 -54 -20 -89 -9 -35 -13 -71 -10 -79 3 -8 1 -20 -3 -26 -5 -6
-15 -47 -22 -91 -7 -44 -14 -91 -16 -105 -2 -14 -7 -36 -10 -50 -8 -34 -13
-93 -15 -203 -3 -121 -1 -139 15 -160 16 -21 123 -50 129 -34 1 5 9 3 17 -5 8
-7 33 -15 55 -16 22 -1 54 -4 70 -6 17 -3 33 -5 37 -5 3 -1 9 -14 13 -31 4
-16 10 -30 15 -30 11 0 76 -138 83 -177 8 -40 39 -73 86 -89 30 -11 38 -10 47
2 10 13 15 11 32 -13 11 -16 20 -38 19 -48 -1 -14 5 -21 23 -24 14 -1 36 -11
50 -21 22 -16 64 -33 82 -35 3 0 18 -10 32 -22 14 -13 26 -20 26 -16 0 3 9 -2
20 -12 11 -10 20 -15 20 -11 0 4 7 1 15 -8 8 -8 15 -19 15 -25 0 -10 20 -15
48 -12 6 1 12 -2 12 -7 0 -5 33 -26 73 -47 160 -82 155 -78 161 -125 2 -19 4
-38 5 -41 2 -10 51 -8 51 2 0 23 40 -3 59 -39 6 -12 18 -22 25 -22 20 0 122
-109 118 -127 -3 -11 2 -13 20 -8 13 4 32 14 42 21 15 10 24 10 40 1 12 -6 27
-11 34 -12 12 0 40 -20 98 -72 13 -13 53 -41 87 -65 34 -23 64 -45 67 -48 3
-4 23 -18 45 -32 22 -14 61 -46 87 -72 26 -25 55 -46 63 -46 19 0 56 -21 71
-40 7 -8 16 -15 21 -15 4 0 32 -23 60 -50 61 -58 66 -62 113 -95 19 -13 48
-37 65 -52 70 -65 177 -97 206 -62 16 20 42 17 56 -5 9 -15 20 -18 45 -14 18
3 40 9 49 14 9 4 19 6 21 3 3 -2 36 9 73 26 37 17 78 31 91 32 13 1 24 8 24
14 0 14 49 32 105 39 20 3 42 8 49 12 6 4 28 9 50 10 21 2 75 20 120 39 44 20
86 37 91 39 6 1 24 7 40 14 17 6 55 21 85 32 30 11 63 25 74 31 10 5 30 12 44
14 15 3 32 10 39 16 7 5 18 8 25 5 7 -2 26 3 43 11 16 8 42 15 57 14 16 0 26
3 23 8 -5 7 28 32 45 35 3 0 31 11 63 23 32 12 69 22 82 22 14 0 25 4 25 8 0
8 70 42 95 46 7 1 20 7 28 14 8 7 22 9 31 6 11 -4 22 1 31 14 8 11 27 23 42
26 16 4 44 17 63 30 19 12 51 28 70 35 42 16 113 52 120 61 10 15 70 40 93 40
21 0 24 4 22 30 -2 19 2 30 11 30 18 0 30 88 15 112 -6 10 -11 25 -11 33 0 8
-5 15 -10 15 -6 0 -21 10 -34 23 -22 22 -37 26 -104 28 -37 1 -62 36 -62 89 0
16 -3 30 -7 30 -5 0 -7 35 -6 77 2 79 3 86 21 158 6 22 12 54 14 70 2 17 9 35
15 40 7 6 16 27 20 47 6 26 18 43 43 60 23 16 35 31 35 47 0 13 7 25 15 27 40
8 61 13 70 19 6 3 10 1 10 -6 0 -7 4 -8 13 -2 6 5 28 10 47 12 19 2 42 7 51
11 9 5 25 6 37 3 15 -4 22 -1 22 10 0 8 8 17 18 19 24 7 157 -1 204 -11 21 -5
67 -7 101 -5 34 3 78 6 97 7 19 1 50 10 68 20 39 21 102 81 102 96 0 7 7 14
15 17 8 4 13 10 10 14 -3 5 -1 11 5 15 12 7 -11 68 -35 91 -8 9 -13 20 -10 25
4 5 1 9 -5 9 -6 0 -17 15 -25 33 -11 27 -60 90 -113 145 -7 8 -19 29 -27 48
-8 19 -19 34 -24 34 -6 0 -10 3 -9 8 4 20 -25 65 -85 132 -41 45 -77 97 -77
108 0 13 56 35 68 28 5 -3 15 1 22 9 7 8 19 15 27 15 10 0 11 5 4 19 -6 10 -7
21 -4 25 3 3 2 6 -4 6 -14 0 -26 35 -28 81 -2 32 -61 136 -102 177 -7 7 -13
17 -13 20 0 4 -10 19 -22 32 -13 14 -48 55 -78 90 -30 36 -61 72 -70 80 -9 8
-31 35 -50 60 -19 25 -44 54 -55 65 -12 11 -43 49 -70 84 -28 36 -70 85 -95
110 -25 25 -74 86 -109 134 -35 48 -73 96 -85 105 -12 10 -45 47 -75 82 -30
36 -69 79 -85 96 -17 18 -36 37 -42 44 -30 31 -52 46 -85 58 -47 16 -59 15
-94 -8z"/>
</g>
</svg>
